<?xml version="1.0" encoding="UTF-8" standalone="no"?>
<!DOCTYPE svg PUBLIC "-//W3C//DTD SVG 1.1//EN" "http://www.w3.org/Graphics/SVG/1.1/DTD/svg11.dtd">
<svg width="100%" height="100%" viewBox="0 0 101 101" version="1.1" xmlns="http://www.w3.org/2000/svg" xmlns:xlink="http://www.w3.org/1999/xlink" xml:space="preserve" xmlns:serif="http://www.serif.com/" style="fill-rule:evenodd;clip-rule:evenodd;stroke-linejoin:round;stroke-miterlimit:2;">
    <g transform="matrix(1,0,0,1,-131,-582)">
        <g id="email-sent" transform="matrix(1,0,0,1.00503,131.673,581.906)">
            <rect x="0" y="0.5" width="100" height="99.5" style="fill:none;"/>
            <g transform="matrix(3.96398,0,0,3.94416,2.64845,10.6192)">
                <path d="M23.462,6.214L17.663,0.414C17.433,0.188 17.115,0.073 16.793,0.1C16.739,0.102 16.686,0.112 16.636,0.131C16.424,0.168 16.227,0.267 16.07,0.415L6.334,10.15C6.185,10.307 6.086,10.505 6.049,10.718C6.031,10.766 6.022,10.817 6.02,10.869C5.992,11.192 6.107,11.512 6.335,11.743L12.134,17.543C12.354,17.762 12.642,17.87 12.93,17.87C13.218,17.87 13.507,17.761 13.727,17.542L23.462,7.806C23.897,7.369 23.897,6.651 23.462,6.214ZM16.001,1.898L14.507,8.563L7.822,10.076L16.001,1.898ZM22.755,7.099L13.021,16.833C12.997,16.857 12.965,16.871 12.931,16.871C12.897,16.871 12.865,16.858 12.841,16.834L7.24,11.233L15.037,9.468C15.225,9.425 15.372,9.278 15.415,9.09L17.156,1.321L22.755,6.92C22.804,6.97 22.804,7.05 22.755,7.099ZM5.856,13.383C5.662,13.189 5.343,13.189 5.149,13.383L0.249,18.283C0.155,18.377 0.103,18.504 0.103,18.636C0.103,18.911 0.329,19.137 0.603,19.137C0.736,19.137 0.863,19.084 0.957,18.99L5.857,14.09C6.05,13.896 6.05,13.577 5.856,13.383ZM7.916,15.442C7.722,15.248 7.403,15.248 7.209,15.442L3.922,18.729C3.828,18.823 3.776,18.95 3.776,19.082C3.776,19.357 4.002,19.583 4.276,19.583C4.409,19.583 4.536,19.53 4.63,19.436L7.917,16.149C8.11,15.955 8.11,15.636 7.916,15.442ZM9.269,17.502L7.625,19.146C7.531,19.24 7.479,19.367 7.479,19.499C7.479,19.774 7.705,20 7.979,20C8.112,20 8.239,19.947 8.333,19.853L9.977,18.209C10.071,18.115 10.123,17.988 10.123,17.856C10.123,17.581 9.897,17.355 9.623,17.355C9.49,17.355 9.363,17.408 9.269,17.502Z" style="fill-rule:nonzero;"/>
            </g>
        </g>
    </g>
</svg>
