<svg xmlns="http://www.w3.org/2000/svg" width="1487.15" height="779.159" viewBox="0 0 1487.15 779.159" preserveAspectRatio="xMinYMin meet">
  <defs>
    <style>.a{fill:#fff;}</style>
  </defs>
  <path class="a"
        d="M1329.55,432.813c35.626-97.47,67.125-264.167-24.177-308.81-87.014-42.546-191.207,36.259-332.9,20.223-100.685-11.395-109.321-52.74-214.225-56.57-118.494-4.325-132.037,47.53-264.211,55.75C356.5,151.96,325.308,98.663,206.364,116.352,89.861,133.677,16.487,200.17,4.38,211.454-139.456,345.511-74.465,723.145,41.321,762.372,128.534,791.92,205.2,684.52,376.2,699.442,481.351,708.619,483,751.909,578.813,749.966c124.624-2.528,149.2-76.327,288.415-94.849,139.051-18.5,168.709,47.918,265.018,16.815C1256.86,631.687,1309.591,487.42,1329.55,432.813Z"
        transform="matrix(0.998, -0.07, 0.07, 0.998, 71.835, 8.036)"/>
</svg>
