<?xml version="1.0" encoding="UTF-8" standalone="no"?><!DOCTYPE svg PUBLIC "-//W3C//DTD SVG 1.1//EN" "http://www.w3.org/Graphics/SVG/1.1/DTD/svg11.dtd"><svg width="100%" height="100%" viewBox="0 0 900 250" version="1.1" xmlns="http://www.w3.org/2000/svg" xmlns:xlink="http://www.w3.org/1999/xlink" xml:space="preserve" xmlns:serif="http://www.serif.com/" style="fill-rule:evenodd;clip-rule:evenodd;stroke-linejoin:round;stroke-miterlimit:2;"><rect id="brand-white" x="0" y="0" width="900" height="250" style="fill:none;"/><clipPath id="_clip1"><rect x="0" y="0" width="900" height="250"/></clipPath><g clip-path="url(#_clip1)"><path d="M278.75,168.059c0,0.776 0.485,1.261 1.261,1.261c0.679,0 1.164,-0.485 1.164,-1.261l0,-32.876c3.685,7.564 11.443,12.898 20.269,12.898c12.801,0 22.887,-10.571 22.887,-23.566c0,-12.995 -10.086,-23.469 -22.887,-23.469c-8.826,0 -16.584,5.237 -20.269,12.995l0,-11.734c0,-0.776 -0.485,-1.261 -1.164,-1.261c-0.776,0 -1.261,0.485 -1.261,1.261l0,65.752Zm2.425,-44.417c0.388,-11.152 9.504,-20.172 20.269,-20.172c11.152,0 20.366,9.504 20.366,21.045c0,11.638 -9.214,21.045 -20.366,21.045c-11.056,0 -20.269,-9.407 -20.269,-21.045l0,-0.873Z" style="fill:#fff;fill-rule:nonzero;"/><path d="M338.005,147.305c0,0.776 0.582,1.261 1.164,1.261c0.776,0 1.164,-0.485 1.164,-1.261l0,-22.208c0,0 0.388,-1.164 1.164,-3.297c1.26,-3.007 3.588,-7.856 6.982,-11.735c3.2,-3.588 7.759,-6.498 13.771,-6.498c0.776,0 1.261,-0.582 1.261,-1.26c0,-0.679 -0.485,-1.261 -1.261,-1.261c-9.116,0 -15.226,6.207 -18.911,11.734c-1.261,1.94 -2.23,3.88 -3.006,5.625l0,-16.098c0,-0.679 -0.388,-1.261 -1.164,-1.261c-0.582,0 -1.164,0.582 -1.164,1.261l0,22.208c-0.097,0.291 -0.097,0.388 0,0.582l0,22.208Z" style="fill:#fff;fill-rule:nonzero;"/><path d="M370.979,124.806c0,12.995 9.989,23.76 22.402,23.76c12.413,0 22.499,-10.765 22.499,-23.76c0,-13.092 -10.086,-23.76 -22.499,-23.76c-12.413,0 -22.402,10.668 -22.402,23.76Zm2.424,0c0,-11.832 9.019,-21.336 19.978,-21.336c10.959,0 20.075,9.504 20.075,21.336c0,11.735 -9.116,21.336 -20.075,21.336c-10.959,0 -19.978,-9.601 -19.978,-21.336Z" style="fill:#fff;fill-rule:nonzero;"/><path d="M471.741,147.305l0,-21.432l0,-1.164l0,-0.97l0,-41.604c0,-0.679 -0.485,-1.455 -1.261,-1.455c-0.582,0 -1.163,0.776 -1.163,1.455l0,32.003c-3.783,-7.758 -11.541,-13.092 -20.463,-13.092c-12.802,0 -23.082,10.668 -23.082,23.663c0,13.092 10.28,23.857 23.082,23.857c8.922,0 16.68,-5.334 20.463,-12.995l0,11.734c0,0.679 0.581,1.261 1.163,1.261c0.776,0 1.261,-0.582 1.261,-1.261Zm-2.424,-22.596c0,11.832 -9.311,21.433 -20.463,21.433c-11.347,0 -20.657,-9.601 -20.657,-21.433c0,-11.735 9.31,-21.239 20.657,-21.239c10.862,0 20.075,9.02 20.463,20.366l0,0.873Z" style="fill:#fff;fill-rule:nonzero;"/><path d="M487.161,129.364c0,10.668 8.534,19.202 19.008,19.202c10.571,0 19.202,-8.534 19.202,-19.202l0,-27.057c0,-0.679 -0.582,-1.261 -1.261,-1.261c-0.581,0 -1.26,0.582 -1.26,1.261l0,27.057c0,9.31 -7.468,16.778 -16.681,16.778c-9.116,0 -16.584,-7.468 -16.584,-16.778l0,-27.057c0,-0.679 -0.581,-1.261 -1.163,-1.261c-0.776,0 -1.261,0.582 -1.261,1.261l0,27.057Z" style="fill:#fff;fill-rule:nonzero;"/><path d="M539.336,124.806c0,12.995 10.959,23.663 24.439,23.76c5.625,0 10.959,-1.939 15.129,-5.14c0.485,-0.485 0.485,-1.164 0.097,-1.745c-0.388,-0.485 -1.163,-0.582 -1.648,-0.291c-3.783,2.909 -8.535,4.752 -13.578,4.752c-12.316,0 -22.014,-9.601 -22.014,-21.336c0,-11.735 9.698,-21.336 22.014,-21.336c5.043,0 9.795,1.746 13.578,4.655c0.582,0.388 1.26,0.388 1.648,-0.097c0.388,-0.581 0.388,-1.357 -0.097,-1.842c-4.17,-3.298 -9.504,-5.14 -15.129,-5.14c-13.48,0 -24.439,10.668 -24.439,23.76Z" style="fill:#fff;fill-rule:nonzero;"/><path d="M607.901,101.046l-7.758,0l0,-19.008c0,-0.679 -0.582,-1.261 -1.261,-1.261c-0.679,0 -1.163,0.582 -1.163,1.261l0,19.008l-8.147,0c-0.679,0 -1.261,0.582 -1.261,1.261c0,0.678 0.582,1.163 1.261,1.163l8.147,0l0,37.823c0,4.073 3.297,7.37 7.37,7.37c0.679,0 1.261,-0.582 1.261,-1.261c0,-0.678 -0.582,-1.163 -1.261,-1.163c-2.715,0 -4.946,-2.231 -4.946,-4.946l0,-37.823l7.758,0c0.679,0 1.261,-0.485 1.261,-1.163c0,-0.679 -0.582,-1.261 -1.261,-1.261Z" style="fill:#fff;fill-rule:nonzero;"/><path d="M648.433,141.875c3.879,3.103 9.698,6.594 17.263,6.691c4.752,0 9.116,-1.454 12.607,-3.879c3.491,-2.521 6.11,-6.498 6.11,-11.25c0,-2.23 -0.679,-4.461 -1.843,-6.4c-1.649,-2.716 -4.267,-4.558 -6.885,-5.722c-2.813,-1.358 -5.819,-2.231 -9.02,-2.813l-0.097,0l-0.097,-0.097c-3.297,-0.582 -5.818,-1.454 -7.079,-2.327c-0.679,-0.388 -0.97,-0.776 -1.067,-0.97c-0.194,-0.291 -0.194,-0.388 -0.194,-0.776c0,-0.485 0.291,-1.358 1.552,-2.23c1.26,-0.97 3.394,-1.746 5.819,-1.746c3.103,0 5.818,1.552 8.922,3.588c2.424,1.649 5.625,0.97 7.176,-1.357c1.455,-2.425 0.776,-5.625 -1.551,-7.177c-3.104,-2.134 -7.856,-5.334 -14.547,-5.334c-4.462,0 -8.535,1.261 -11.929,3.588c-3.2,2.425 -5.722,6.207 -5.722,10.668c0,2.231 0.582,4.364 1.649,6.11c1.745,2.618 4.073,4.364 6.691,5.625c2.522,1.164 5.431,1.939 8.438,2.521l0.097,0c3.491,0.679 6.4,1.746 7.758,2.716c0.776,0.485 1.164,0.873 1.261,1.163c0.194,0.291 0.291,0.485 0.291,0.97c0,0.776 -0.388,1.746 -1.746,2.91c-1.551,0.97 -3.976,1.842 -6.594,1.842c-3.783,0.097 -8.147,-2.133 -10.668,-4.267c-2.134,-1.842 -5.528,-1.551 -7.274,0.776c-1.745,2.134 -1.455,5.431 0.679,7.177Z" style="fill:#fff;fill-rule:nonzero;"/><path d="M698.087,166.799c3.103,0 5.528,-2.522 5.528,-5.237l0,-17.069c3.491,2.522 8.146,3.976 12.995,3.976c12.899,0 23.469,-10.765 23.469,-24.051c0,-13.286 -10.57,-24.342 -23.469,-24.342c-4.946,0 -9.601,1.649 -13.189,3.976c-0.388,-2.133 -2.619,-3.976 -5.334,-3.976c-2.812,0 -5.14,2.328 -5.14,5.14l0,56.346c0,2.715 2.328,5.237 5.14,5.237Zm9.31,-52.176c2.425,-2.618 5.625,-3.976 9.213,-3.976c3.298,0 6.595,1.358 9.116,3.976c2.231,2.522 3.783,6.013 3.783,9.795c0,3.782 -1.552,7.468 -3.783,9.698c-2.521,2.716 -5.818,4.073 -9.116,4.073c-3.588,0 -6.788,-1.357 -9.213,-4.073c-2.521,-2.23 -3.782,-5.916 -3.782,-9.698c0,-3.782 1.261,-7.273 3.782,-9.795Z" style="fill:#fff;fill-rule:nonzero;"/><path d="M793.128,105.313c0,-2.909 -2.328,-5.237 -5.14,-5.237c-2.522,0 -4.461,1.843 -5.043,4.267c-3.686,-2.618 -8.05,-4.267 -12.899,-4.267c-6.594,0 -12.316,2.812 -16.486,7.274c-4.17,4.364 -6.595,10.376 -6.595,17.068c0,6.595 2.425,12.608 6.595,17.069c4.17,4.364 9.892,7.079 16.486,7.079c4.849,0 9.213,-1.551 12.899,-4.17c0.582,2.328 2.521,4.17 5.043,4.17c2.812,0 5.14,-2.327 5.14,-5.14l0,-19.008l0,-19.105Zm-14.062,29.094c-2.328,2.425 -5.625,3.782 -9.02,3.782c-3.491,0 -6.788,-1.357 -9.019,-3.782c-2.327,-2.521 -3.685,-6.013 -3.685,-9.989c0,-4.073 1.358,-7.564 3.685,-9.989c2.231,-2.618 5.528,-3.976 9.019,-3.976c3.395,0 6.692,1.358 9.02,3.976c2.327,2.425 3.782,5.916 3.782,9.989c0,3.976 -1.455,7.468 -3.782,9.989Z" style="fill:#fff;fill-rule:nonzero;"/><path d="M828.525,148.566c5.819,0 11.25,-2.133 15.42,-5.14c2.231,-1.939 2.619,-5.043 1.067,-7.176c-1.939,-2.328 -5.14,-2.716 -7.273,-1.067c-2.522,1.843 -5.722,3.103 -9.214,3.103c-7.855,0 -14.353,-6.4 -14.353,-13.868c0,-7.467 6.498,-13.965 14.353,-13.965c3.589,0 6.692,1.261 9.214,3.103c2.23,1.746 5.334,1.358 7.273,-0.969c1.552,-2.134 1.164,-5.431 -1.067,-7.177c-4.17,-3.2 -9.601,-5.334 -15.42,-5.334c-13.383,0.097 -24.633,10.862 -24.633,24.342c0,13.286 11.25,24.148 24.633,24.148Z" style="fill:#fff;fill-rule:nonzero;"/><path d="M876.628,148.566c6.885,0 12.607,-2.036 17.359,-6.4c2.231,-2.037 1.261,-4.946 0,-6.304c-1.261,-1.552 -5.237,-1.843 -7.273,0.291c-2.425,1.842 -6.595,2.715 -10.086,2.424c-3.395,-0.291 -7.274,-2.036 -9.31,-4.364c-1.746,-1.649 -2.813,-4.17 -3.298,-6.401l30.84,0c2.715,0 4.752,-1.551 5.043,-3.879c0.097,-0.194 0.097,-0.679 0.097,-0.873l0,-0.485c-0.776,-13.092 -10.765,-22.499 -23.372,-22.499c-13.287,0 -23.566,11.056 -23.663,24.245c0.097,13.189 10.376,24.148 23.663,24.245Zm0,-39.277c8.437,0.679 13.383,6.401 14.353,10.28l-27.446,0c0.776,-3.976 4.849,-9.892 13.093,-10.28Z" style="fill:#fff;fill-rule:nonzero;"/><g><path d="M125,250c69.036,0 125,-55.964 125,-125c0,-69.036 -55.964,-125 -125,-125c-69.036,0 -125,55.964 -125,125c0,69.036 55.964,125 125,125Z" style="fill:#fff;"/><g><path d="M210.599,142.36l-77.185,46.262c-5.251,3.148 -13.841,3.148 -19.092,0l-77.673,-46.556l-1.461,0.877c-5.251,3.146 -5.251,8.296 0,11.443l79.134,47.431c5.251,3.147 13.841,3.147 19.092,0l78.645,-47.138c5.251,-3.147 5.251,-8.297 0,-11.444l-1.46,-0.875Z" style="fill:#e02c4c;"/><path d="M212.059,121.245l-1.46,-0.876l-77.185,46.263c-5.251,3.147 -13.841,3.147 -19.092,0l-77.673,-46.556l-1.461,0.876c-5.251,3.147 -5.251,8.296 0,11.444l79.134,47.431c5.251,3.146 13.841,3.146 19.092,0l78.645,-47.139c5.251,-3.147 5.251,-8.297 0,-11.443Z" style="fill:#e02c4c;"/><path d="M125.832,115.308c-1.969,-1.18 -1.977,-3.089 -0.018,-4.264c1.96,-1.173 5.143,-1.169 7.112,0.012c1.969,1.18 1.977,3.088 0.018,4.262c-1.959,1.175 -5.143,1.17 -7.112,-0.01Zm-24.44,12.873c-1.968,-1.18 -1.976,-3.089 -0.018,-4.262c1.96,-1.175 5.144,-1.17 7.113,0.01c1.969,1.18 1.976,3.089 0.018,4.263c-1.96,1.174 -5.144,1.17 -7.113,-0.011Zm114.096,-30.962l-81.593,-48.905c-4.575,-2.741 -12.041,-2.754 -16.592,-0.024l-81.188,48.661c-4.55,2.727 -4.531,7.203 0.043,9.944l37.447,22.218c-0.446,-2.519 1.15,-5.339 4.078,-7.094l51.73,-31.006l6.611,-27.868l50.39,30.029l-50.059,1.299l-52.395,31.404c-3.316,1.987 -4.194,4.9 -2.664,7.396l36.454,22.528c4.574,2.742 12.041,2.752 16.591,0.025l81.188,-48.662c4.551,-2.728 4.533,-7.203 -0.041,-9.945Z" style="fill:#e02c4c;"/></g></g></g></svg>