<?xml version="1.0" encoding="UTF-8" standalone="no"?><!DOCTYPE svg PUBLIC "-//W3C//DTD SVG 1.1//EN" "http://www.w3.org/Graphics/SVG/1.1/DTD/svg11.dtd"><svg width="100%" height="100%" viewBox="0 0 840 160" version="1.1" xmlns="http://www.w3.org/2000/svg" xmlns:xlink="http://www.w3.org/1999/xlink" xml:space="preserve" xmlns:serif="http://www.serif.com/" style="fill-rule:evenodd;clip-rule:evenodd;stroke-linejoin:round;stroke-miterlimit:2;"><rect id="brand" x="0" y="0" width="840" height="160" style="fill:none;"/><path d="M218.75,122.896c0,0.776 0.485,1.26 1.261,1.26c0.679,0 1.164,-0.484 1.164,-1.26l0,-32.877c3.685,7.565 11.443,12.899 20.269,12.899c12.801,0 22.887,-10.571 22.887,-23.566c0,-12.996 -10.086,-23.47 -22.887,-23.47c-8.826,0 -16.584,5.237 -20.269,12.996l0,-11.735c0,-0.776 -0.485,-1.261 -1.164,-1.261c-0.776,0 -1.261,0.485 -1.261,1.261l0,65.753Zm2.425,-44.417c0.388,-11.153 9.504,-20.172 20.269,-20.172c11.152,0 20.366,9.504 20.366,21.045c0,11.637 -9.214,21.044 -20.366,21.044c-11.056,0 -20.269,-9.407 -20.269,-21.044l0,-0.873Z" style="fill-rule:nonzero;"/><path d="M278.005,102.142c0,0.776 0.582,1.261 1.164,1.261c0.776,0 1.164,-0.485 1.164,-1.261l0,-22.209c0,0 0.388,-1.163 1.164,-3.297c1.26,-3.006 3.588,-7.855 6.982,-11.735c3.2,-3.588 7.759,-6.497 13.771,-6.497c0.776,0 1.261,-0.582 1.261,-1.261c0,-0.679 -0.485,-1.261 -1.261,-1.261c-9.116,0 -15.226,6.207 -18.911,11.735c-1.261,1.939 -2.23,3.879 -3.006,5.625l0,-16.099c0,-0.679 -0.388,-1.261 -1.164,-1.261c-0.582,0 -1.164,0.582 -1.164,1.261l0,22.209c-0.097,0.29 -0.097,0.387 0,0.581l0,22.209Z" style="fill-rule:nonzero;"/><path d="M310.979,79.642c0,12.996 9.989,23.761 22.402,23.761c12.413,0 22.499,-10.765 22.499,-23.761c0,-13.092 -10.086,-23.76 -22.499,-23.76c-12.413,0 -22.402,10.668 -22.402,23.76Zm2.424,0c0,-11.831 9.019,-21.335 19.978,-21.335c10.959,0 20.075,9.504 20.075,21.335c0,11.735 -9.116,21.336 -20.075,21.336c-10.959,0 -19.978,-9.601 -19.978,-21.336Z" style="fill-rule:nonzero;"/><path d="M411.741,102.142l0,-21.433l0,-1.164l0,-0.969l0,-41.605c0,-0.679 -0.485,-1.455 -1.261,-1.455c-0.582,0 -1.163,0.776 -1.163,1.455l0,32.004c-3.783,-7.759 -11.541,-13.093 -20.463,-13.093c-12.802,0 -23.082,10.668 -23.082,23.663c0,13.093 10.28,23.858 23.082,23.858c8.922,0 16.68,-5.334 20.463,-12.996l0,11.735c0,0.679 0.581,1.261 1.163,1.261c0.776,0 1.261,-0.582 1.261,-1.261Zm-2.424,-22.597c0,11.832 -9.311,21.433 -20.463,21.433c-11.347,0 -20.657,-9.601 -20.657,-21.433c0,-11.734 9.31,-21.238 20.657,-21.238c10.862,0 20.075,9.019 20.463,20.366l0,0.872Z" style="fill-rule:nonzero;"/><path d="M427.161,84.201c0,10.667 8.534,19.202 19.008,19.202c10.571,0 19.202,-8.535 19.202,-19.202l0,-27.058c0,-0.679 -0.582,-1.261 -1.261,-1.261c-0.581,0 -1.26,0.582 -1.26,1.261l0,27.058c0,9.31 -7.468,16.777 -16.681,16.777c-9.116,0 -16.584,-7.467 -16.584,-16.777l0,-27.058c0,-0.679 -0.581,-1.261 -1.163,-1.261c-0.776,0 -1.261,0.582 -1.261,1.261l0,27.058Z" style="fill-rule:nonzero;"/><path d="M479.336,79.642c0,12.996 10.959,23.664 24.439,23.761c5.625,0 10.959,-1.94 15.129,-5.14c0.485,-0.485 0.485,-1.164 0.097,-1.746c-0.388,-0.485 -1.163,-0.582 -1.648,-0.291c-3.783,2.909 -8.535,4.752 -13.578,4.752c-12.316,0 -22.014,-9.601 -22.014,-21.336c0,-11.734 9.698,-21.335 22.014,-21.335c5.043,0 9.795,1.745 13.578,4.655c0.582,0.388 1.26,0.388 1.648,-0.097c0.388,-0.582 0.388,-1.358 -0.097,-1.843c-4.17,-3.297 -9.504,-5.14 -15.129,-5.14c-13.48,0 -24.439,10.668 -24.439,23.76Z" style="fill-rule:nonzero;"/><path d="M547.901,55.882l-7.758,0l0,-19.008c0,-0.679 -0.582,-1.261 -1.261,-1.261c-0.679,0 -1.163,0.582 -1.163,1.261l0,19.008l-8.147,0c-0.679,0 -1.261,0.582 -1.261,1.261c0,0.679 0.582,1.164 1.261,1.164l8.147,0l0,37.822c0,4.073 3.297,7.371 7.37,7.371c0.679,0 1.261,-0.582 1.261,-1.261c0,-0.679 -0.582,-1.164 -1.261,-1.164c-2.715,0 -4.946,-2.23 -4.946,-4.946l0,-37.822l7.758,0c0.679,0 1.261,-0.485 1.261,-1.164c0,-0.679 -0.582,-1.261 -1.261,-1.261Z" style="fill-rule:nonzero;"/><path d="M588.433,96.711c3.879,3.103 9.698,6.595 17.263,6.692c4.752,0 9.116,-1.455 12.607,-3.88c3.491,-2.521 6.11,-6.497 6.11,-11.249c0,-2.231 -0.679,-4.461 -1.843,-6.401c-1.649,-2.715 -4.267,-4.558 -6.885,-5.722c-2.813,-1.358 -5.819,-2.23 -9.02,-2.812l-0.097,0l-0.097,-0.097c-3.297,-0.582 -5.818,-1.455 -7.079,-2.328c-0.679,-0.388 -0.97,-0.776 -1.067,-0.97c-0.194,-0.291 -0.194,-0.388 -0.194,-0.775c0,-0.485 0.291,-1.358 1.552,-2.231c1.26,-0.97 3.394,-1.746 5.819,-1.746c3.103,0 5.818,1.552 8.922,3.589c2.424,1.648 5.625,0.969 7.176,-1.358c1.455,-2.425 0.776,-5.625 -1.551,-7.177c-3.104,-2.133 -7.856,-5.334 -14.547,-5.334c-4.462,0 -8.535,1.261 -11.929,3.589c-3.2,2.424 -5.722,6.206 -5.722,10.668c0,2.23 0.582,4.364 1.649,6.109c1.745,2.619 4.073,4.364 6.691,5.625c2.522,1.164 5.431,1.94 8.438,2.522l0.097,0c3.491,0.679 6.4,1.745 7.758,2.715c0.776,0.485 1.164,0.873 1.261,1.164c0.194,0.291 0.291,0.485 0.291,0.97c0,0.776 -0.388,1.745 -1.746,2.909c-1.551,0.97 -3.976,1.843 -6.594,1.843c-3.783,0.097 -8.147,-2.134 -10.668,-4.267c-2.134,-1.843 -5.528,-1.552 -7.274,0.775c-1.745,2.134 -1.455,5.431 0.679,7.177Z" style="fill-rule:nonzero;"/><path d="M638.087,121.635c3.103,0 5.528,-2.522 5.528,-5.237l0,-17.069c3.491,2.522 8.146,3.977 12.995,3.977c12.899,0 23.469,-10.765 23.469,-24.051c0,-13.287 -10.57,-24.343 -23.469,-24.343c-4.946,0 -9.601,1.649 -13.189,3.977c-0.388,-2.134 -2.619,-3.977 -5.334,-3.977c-2.812,0 -5.14,2.328 -5.14,5.14l0,56.346c0,2.715 2.328,5.237 5.14,5.237Zm9.31,-52.175c2.425,-2.619 5.625,-3.977 9.213,-3.977c3.298,0 6.595,1.358 9.116,3.977c2.231,2.521 3.783,6.012 3.783,9.795c0,3.782 -1.552,7.467 -3.783,9.698c-2.521,2.715 -5.818,4.073 -9.116,4.073c-3.588,0 -6.788,-1.358 -9.213,-4.073c-2.521,-2.231 -3.782,-5.916 -3.782,-9.698c0,-3.783 1.261,-7.274 3.782,-9.795Z" style="fill-rule:nonzero;"/><path d="M733.128,60.149c0,-2.909 -2.328,-5.237 -5.14,-5.237c-2.522,0 -4.461,1.843 -5.043,4.268c-3.686,-2.619 -8.05,-4.268 -12.899,-4.268c-6.594,0 -12.316,2.813 -16.486,7.274c-4.17,4.364 -6.595,10.377 -6.595,17.069c0,6.594 2.425,12.607 6.595,17.068c4.17,4.364 9.892,7.08 16.486,7.08c4.849,0 9.213,-1.552 12.899,-4.171c0.582,2.328 2.521,4.171 5.043,4.171c2.812,0 5.14,-2.328 5.14,-5.14l0,-19.008l0,-19.106Zm-14.062,29.094c-2.328,2.425 -5.625,3.783 -9.02,3.783c-3.491,0 -6.788,-1.358 -9.019,-3.783c-2.327,-2.521 -3.685,-6.012 -3.685,-9.988c0,-4.074 1.358,-7.565 3.685,-9.989c2.231,-2.619 5.528,-3.977 9.019,-3.977c3.395,0 6.692,1.358 9.02,3.977c2.327,2.424 3.782,5.915 3.782,9.989c0,3.976 -1.455,7.467 -3.782,9.988Z" style="fill-rule:nonzero;"/><path d="M768.525,103.403c5.819,0 11.25,-2.134 15.42,-5.14c2.231,-1.94 2.619,-5.043 1.067,-7.177c-1.939,-2.327 -5.14,-2.715 -7.273,-1.067c-2.522,1.843 -5.722,3.104 -9.214,3.104c-7.855,0 -14.353,-6.401 -14.353,-13.868c0,-7.468 6.498,-13.966 14.353,-13.966c3.589,0 6.692,1.261 9.214,3.104c2.23,1.745 5.334,1.357 7.273,-0.97c1.552,-2.134 1.164,-5.431 -1.067,-7.177c-4.17,-3.2 -9.601,-5.334 -15.42,-5.334c-13.383,0.097 -24.633,10.862 -24.633,24.343c0,13.286 11.25,24.148 24.633,24.148Z" style="fill-rule:nonzero;"/><path d="M816.628,103.403c6.885,0 12.607,-2.037 17.359,-6.401c2.231,-2.037 1.261,-4.946 0,-6.304c-1.261,-1.551 -5.237,-1.842 -7.273,0.291c-2.425,1.843 -6.595,2.716 -10.086,2.425c-3.395,-0.291 -7.274,-2.037 -9.31,-4.364c-1.746,-1.649 -2.813,-4.171 -3.298,-6.401l30.84,0c2.715,0 4.752,-1.552 5.043,-3.879c0.097,-0.194 0.097,-0.679 0.097,-0.873l0,-0.485c-0.776,-13.092 -10.765,-22.5 -23.372,-22.5c-13.287,0 -23.566,11.056 -23.663,24.246c0.097,13.189 10.376,24.148 23.663,24.245Zm0,-39.277c8.437,0.678 13.383,6.4 14.353,10.28l-27.446,0c0.776,-3.977 4.849,-9.892 13.093,-10.28Z" style="fill-rule:nonzero;"/><g><g><path d="M179.349,96.11l-77.185,46.262c-5.251,3.148 -13.841,3.148 -19.091,0l-77.674,-46.556l-1.461,0.877c-5.251,3.146 -5.251,8.295 0,11.443l79.135,47.431c5.25,3.147 13.84,3.147 19.091,0l78.645,-47.138c5.251,-3.147 5.251,-8.297 0,-11.444l-1.46,-0.875Z" style="fill:#e02c4c;"/><path d="M180.809,74.994l-1.46,-0.875l-77.185,46.262c-5.251,3.148 -13.841,3.148 -19.091,0l-77.674,-46.556l-1.461,0.877c-5.251,3.146 -5.251,8.296 0,11.443l79.135,47.431c5.25,3.147 13.84,3.147 19.091,0l78.645,-47.138c5.251,-3.147 5.251,-8.297 0,-11.444Z" style="fill:#e02c4c;"/><path d="M94.582,69.058c-1.969,-1.18 -1.977,-3.09 -0.018,-4.264c1.96,-1.173 5.143,-1.169 7.112,0.011c1.969,1.18 1.977,3.088 0.018,4.263c-1.959,1.174 -5.143,1.17 -7.112,-0.01Zm-24.44,12.873c-1.968,-1.18 -1.976,-3.089 -0.018,-4.263c1.96,-1.174 5.144,-1.17 7.113,0.011c1.969,1.18 1.976,3.089 0.018,4.262c-1.96,1.175 -5.144,1.17 -7.113,-0.01Zm114.096,-30.962l-81.593,-48.905c-4.575,-2.742 -12.041,-2.754 -16.592,-0.025l-81.188,48.662c-4.55,2.727 -4.531,7.202 0.043,9.944l37.447,22.218c-0.446,-2.519 1.15,-5.34 4.078,-7.095l51.73,-31.006l6.611,-27.867l50.39,30.028l-50.059,1.3l-52.395,31.404c-3.316,1.987 -4.194,4.899 -2.664,7.396l36.454,22.528c4.574,2.742 12.041,2.752 16.591,0.025l81.188,-48.662c4.551,-2.728 4.533,-7.204 -0.041,-9.945Z" style="fill:#e02c4c;"/></g></g></svg>