<?xml version="1.0" encoding="UTF-8" standalone="no"?><!DOCTYPE svg PUBLIC "-//W3C//DTD SVG 1.1//EN" "http://www.w3.org/Graphics/SVG/1.1/DTD/svg11.dtd"><svg width="100%" height="100%" viewBox="0 0 250 250" version="1.1" xmlns="http://www.w3.org/2000/svg" xmlns:xlink="http://www.w3.org/1999/xlink" xml:space="preserve" xmlns:serif="http://www.serif.com/" style="fill-rule:evenodd;clip-rule:evenodd;stroke-linejoin:round;stroke-miterlimit:2;"><rect id="logo-white" x="0" y="0" width="250" height="250" style="fill:none;"/><clipPath id="_clip1"><rect x="0" y="0" width="250" height="250"/></clipPath><g clip-path="url(#_clip1)"><g><path d="M125,250c69.036,0 125,-55.964 125,-125c0,-69.036 -55.964,-125 -125,-125c-69.036,0 -125,55.964 -125,125c0,69.036 55.964,125 125,125Z" style="fill:#fff;"/><g><path d="M210.599,142.36l-77.185,46.262c-5.251,3.148 -13.841,3.148 -19.092,0l-77.673,-46.556l-1.461,0.877c-5.251,3.146 -5.251,8.296 0,11.443l79.134,47.431c5.251,3.147 13.841,3.147 19.092,0l78.645,-47.138c5.25,-3.147 5.25,-8.297 0,-11.444l-1.46,-0.875Z" style="fill:#e02c4c;"/><path d="M212.059,121.245l-1.46,-0.876l-77.185,46.263c-5.251,3.147 -13.841,3.147 -19.092,0l-77.673,-46.556l-1.461,0.876c-5.251,3.147 -5.251,8.296 0,11.444l79.134,47.431c5.251,3.146 13.841,3.146 19.092,0l78.645,-47.139c5.251,-3.147 5.251,-8.297 0,-11.443Z" style="fill:#e02c4c;"/><path d="M125.832,115.308c-1.969,-1.18 -1.977,-3.089 -0.018,-4.264c1.959,-1.173 5.143,-1.169 7.112,0.012c1.969,1.18 1.977,3.088 0.018,4.262c-1.959,1.175 -5.144,1.17 -7.112,-0.01Zm-24.44,12.873c-1.968,-1.18 -1.976,-3.089 -0.018,-4.262c1.96,-1.175 5.144,-1.17 7.113,0.01c1.969,1.18 1.976,3.089 0.018,4.263c-1.96,1.174 -5.144,1.17 -7.113,-0.011Zm114.095,-30.962l-81.592,-48.905c-4.575,-2.741 -12.041,-2.754 -16.592,-0.024l-81.188,48.661c-4.55,2.727 -4.531,7.203 0.043,9.944l37.447,22.218c-0.446,-2.519 1.15,-5.339 4.078,-7.094l51.73,-31.006l6.611,-27.868l50.39,30.029l-50.059,1.299l-52.395,31.404c-3.316,1.987 -4.194,4.9 -2.664,7.396l36.454,22.528c4.574,2.742 12.041,2.752 16.591,0.025l81.188,-48.662c4.551,-2.728 4.533,-7.203 -0.042,-9.945Z" style="fill:#e02c4c;"/></g></g></g></svg>